<svg width="17" height="17" viewBox="0 0 17 17" fill="none" xmlns="http://www.w3.org/2000/svg">
<path d="M2.44539 2.27778H14.243C15.4414 2.27778 16.2875 3.46657 15.9086 4.61774L14.4455 9.06222C14.2065 9.78809 13.5356 10.2778 12.78 10.2778H3.57403M2.44539 2.27778L2.40993 2.02636C2.28636 1.15054 1.54561 0.5 0.671903 0.5H0M2.44539 2.27778L3.57403 10.2778M3.57403 10.2778L3.73491 11.418C3.85848 12.2939 4.59923 12.9444 5.47294 12.9444H13.1675M13.1675 12.9444C12.1979 12.9444 11.4118 13.7404 11.4118 14.7222C11.4118 15.7041 12.1979 16.5 13.1675 16.5C14.1372 16.5 14.9232 15.7041 14.9232 14.7222C14.9232 13.7404 14.1372 12.9444 13.1675 12.9444ZM7.90051 14.7222C7.90051 15.7041 7.1145 16.5 6.14484 16.5C5.17521 16.5 4.38917 15.7041 4.38917 14.7222C4.38917 13.7404 5.17521 12.9444 6.14484 12.9444C7.1145 12.9444 7.90051 13.7404 7.90051 14.7222Z" stroke="#1F1F1F" stroke-linecap="round" stroke-linejoin="round"/>
</svg>
