<svg width="76" height="76" viewBox="0 0 76 76" fill="none" xmlns="http://www.w3.org/2000/svg">
<g id="Instagram content/logo" clip-path="url(#clip0_1371_1211)">
<g id="Page-1">
<g id="Dribbble-Light-Preview">
<g id="icons">
<path id="instagram-[#167]" fill-rule="evenodd" clip-rule="evenodd" d="M22.3868 0.463943C16.2331 0.741601 10.8993 2.24612 6.59246 6.53481C2.27054 10.846 0.784711 16.2009 0.506362 22.2907C0.333334 26.0916 -0.678444 54.8068 2.2555 62.3374C4.23403 67.4177 8.13081 71.324 13.2577 73.3089C15.65 74.2394 18.3809 74.8693 22.3868 75.0531C55.8827 76.569 68.2992 75.7438 73.5352 62.3374C74.4642 59.951 75.1037 57.2225 75.2805 53.2264C76.8114 19.6447 75.0323 12.3657 69.1945 6.53481C64.5641 1.91591 59.1175 -1.22827 22.3868 0.463943ZM22.6952 68.2993C19.0278 68.1342 17.038 67.5231 15.7102 67.0091C12.37 65.7109 9.86112 63.2123 8.57094 59.8917C6.33663 54.1696 7.07767 26.9927 7.27702 22.5952C7.47262 18.2877 8.34527 14.351 11.3845 11.3118C15.146 7.5596 20.0058 5.7207 53.0953 7.21407C57.4135 7.40917 61.3593 8.28004 64.4061 11.3118C68.1676 15.0639 70.0333 19.9611 68.5136 52.9237C68.3481 56.5821 67.735 58.5671 67.2197 59.8917C63.8156 68.6154 55.9841 69.8264 22.6952 68.2993ZM53.4602 17.7278C53.4602 20.2118 55.4802 22.2316 57.9741 22.2316C60.4679 22.2316 62.4916 20.2118 62.4916 17.7278C62.4916 15.2439 60.4679 13.2259 57.9741 13.2259C55.4802 13.2259 53.4602 15.2439 53.4602 17.7278ZM18.5802 37.7567C18.5802 48.3978 27.2278 57.0251 37.8953 57.0251C48.5628 57.0251 57.2105 48.3978 57.2105 37.7567C57.2105 27.1156 48.5628 18.4938 37.8953 18.4938C27.2278 18.4938 18.5802 27.1156 18.5802 37.7567ZM25.3584 37.7567C25.3584 30.8528 30.9705 25.2513 37.8953 25.2513C44.8202 25.2513 50.4323 30.8528 50.4323 37.7567C50.4323 44.6644 44.8202 50.2676 37.8953 50.2676C30.9705 50.2676 25.3584 44.6644 25.3584 37.7567Z" fill="#484FA2"/>
</g>
</g>
</g>
</g>
<defs>
<clipPath id="clip0_1371_1211">
<rect width="75.6044" height="75.6044" fill="white" transform="translate(0.198242)"/>
</clipPath>
</defs>
</svg>
