<svg width="34" height="34" viewBox="0 0 34 34" fill="none" xmlns="http://www.w3.org/2000/svg">
<path fill-rule="evenodd" clip-rule="evenodd" d="M8.8806 3.17773C5.827 3.17773 3.35156 5.65317 3.35156 8.70677V25.2939C3.35156 28.3474 5.827 30.8229 8.8806 30.8229H25.4677C28.5213 30.8229 30.9967 28.3474 30.9967 25.2939V8.70677C30.9967 5.65317 28.5213 3.17773 25.4677 3.17773H8.8806ZM6.11608 8.70677C6.11608 7.17997 7.3538 5.94225 8.8806 5.94225H25.4677C26.9946 5.94225 28.2322 7.17997 28.2322 8.70677V25.2939C28.2322 26.8207 26.9946 28.0584 25.4677 28.0584H8.8806C7.3538 28.0584 6.11608 26.8207 6.11608 25.2939V8.70677ZM13.0274 15.6181C13.0274 14.8546 12.4085 14.2358 11.6451 14.2358C10.8817 14.2358 10.2629 14.8546 10.2629 15.6181V23.9116C10.2629 24.675 10.8817 25.2939 11.6451 25.2939C12.4085 25.2939 13.0274 24.675 13.0274 23.9116V15.6181ZM13.7185 10.7802C13.7185 11.9253 12.7902 12.8535 11.6451 12.8535C10.5 12.8535 9.57173 11.9253 9.57173 10.7802C9.57173 9.63506 10.5 8.70677 11.6451 8.70677C12.7902 8.70677 13.7185 9.63506 13.7185 10.7802ZM17.1742 14.2358C17.6434 14.2358 18.0581 14.4697 18.308 14.8273C19.0166 14.4434 19.8054 14.2358 20.6298 14.2358C23.6147 14.2358 25.4677 16.8978 25.4677 19.1724V19.1829V19.1933V19.2038V19.2143V19.2248V19.2354V19.2459V19.2566V19.2672V19.2779V19.2887V19.2993V19.3101V19.3209V19.3316V19.3424V19.3532V19.3641V19.375V19.3858V19.3969V19.4078V19.4187V19.4298V19.4407V19.4518V19.4628V19.474V19.4851V19.4963V19.5073V19.5185V19.5297V19.5409V19.5523V19.5635V19.5748V19.586V19.5973V19.6087V19.6201V19.6315V19.6428V19.6543V19.6657V19.6771V19.6885V19.7002V19.7116V19.7231V19.7347V19.7463V19.7578V19.7694V19.781V19.7926V19.8044V19.816V19.8277V19.8393V19.8511V19.8628V19.8746V19.8863V19.8981V19.9098V19.9217V19.9335V19.9454V19.9573V19.9691V19.9809V19.9929V20.0048V20.0167V20.0286V20.0406V20.0525V20.0645V20.0764V20.0884V20.1005V20.1125V20.1245V20.1365V20.1486V20.1607V20.1728V20.1849V20.1969V20.2091V20.2211V20.2333V20.2455V20.2576V20.2698V20.2819V20.2941V20.3063V20.3184V20.3306V20.3429V20.3551V20.3674V20.3795V20.3918V20.404V20.4163V20.4286V20.4409V20.4531V20.4654V20.4777V20.49V20.5023V20.5146V20.5269V20.5392V20.5516V20.5639V20.5762V20.5885V20.601V20.6133V20.6256V20.638V20.6503V20.6628V20.6751V20.6874V20.6998V20.7122V20.7245V20.737V20.7493V20.7617V20.7742V20.7865V20.7989V20.8112V20.8237V20.8361V20.8484V20.8608V20.8733V20.8856V20.898V20.9105V20.9229V20.9352V20.9476V20.9601V20.9724V20.9848V20.9973V21.0096V21.022V21.0343V21.0468V21.0591V21.0715V21.0839V21.0962V21.1087V21.121V21.1333V21.1457V21.158V21.1705V21.1828V21.1951V21.2074V21.2198V21.2321V21.2444V21.2567V21.269V21.2813V21.2936V21.3059V21.3182V21.3305V21.3428V21.355V21.3673V21.3796V21.3918V21.4041V21.4162V21.4285V21.4407V21.453V21.4652V21.4773V21.4895V21.5017V21.5138V21.526V21.5381V21.5503V21.5625V21.5745V21.5867V21.5987V21.6109V21.6229V21.6349V21.6469V21.659V21.671V21.683V21.695V21.7071V21.7191V21.731V21.743V21.7549V21.7668V21.7788V21.7907V21.8026V21.8143V21.8262V21.8381V21.85V21.8617V21.8735V21.8854V21.8971V21.9089V21.9206V21.9324V21.944V21.9557V21.9673V21.9791V21.9907V22.0023V22.0139V22.0255V22.0371V22.0486V22.0602V22.0717V22.0832V22.0946V22.1061V22.1176V22.1291V22.1404V22.1519V22.1632V22.1745V22.1859V22.1972V22.2085V22.2197V22.2311V22.2423V22.2535V22.2647V22.2759V22.2869V22.2981V22.3092V22.3202V22.3313V22.3423V22.3534V22.3643V22.3752V22.3863V22.3972V22.408V22.4189V22.4298V22.4406V22.4514V22.4622V22.473V22.4836V22.4944V22.505V22.5157V22.5263V22.537V22.5475V22.5581V22.5686V22.5791V22.5895V22.6V22.6104V22.6207V22.6311V22.6415V22.6518V22.6621V22.6723V22.6825V22.6927V22.7028V22.7131V22.7232V22.7332V22.7432V22.7533V22.7632V22.7732V22.7831V22.7931V22.8029V22.8127V22.8225V22.8324V22.842V22.8517V22.8614V22.8711V22.8807V22.8903V22.8998V22.9093V22.9189V22.9283V22.9377V22.9471V22.9565V22.9657V22.975V22.9843V22.9935V23.0028V23.0119V23.021V23.03V23.0391V23.0481V23.0571V23.066V23.0749V23.0838V23.0926V23.1013V23.1102V23.1189V23.1276V23.1362V23.1447V23.1533V23.1619V23.1705V23.1789V23.1873V23.1956V23.204V23.2123V23.2205V23.2288V23.2369V23.2451V23.2533V23.2613V23.2693V23.2773V23.2852V23.2931V23.3009V23.3088V23.3166V23.3243V23.332V23.3396V23.3472V23.3549V23.3623V23.3699V23.3772V23.3847V23.392V23.3994V23.4067V23.4139V23.4211V23.4282V23.4353V23.4423V23.4494V23.4563V23.4632V23.4701V23.4769V23.4837V23.4904V23.4971V23.5037V23.5104V23.5169V23.5233V23.5298V23.5362V23.5426V23.5489V23.5551V23.5614V23.5676V23.5737V23.5797V23.5858V23.5918V23.5977V23.6035V23.6093V23.6151V23.6209V23.6266V23.6321V23.6378V23.6433V23.6487V23.6542V23.6596V23.6649V23.6701V23.6754V23.6805V23.6856V23.6907V23.6957V23.7007V23.7057V23.7105V23.7153V23.72V23.7247V23.7294V23.734V23.7386V23.743V23.7474V23.7518V23.7561V23.7604V23.7646V23.7687V23.7728V23.7769V23.7809V23.7849V23.7887V23.7925V23.7962V23.7999V23.8037V23.8073V23.8107V23.8142V23.8176V23.8209V23.8243V23.8276V23.8308V23.8339V23.837V23.8399V23.8429V23.8458V23.8486V23.8514V23.8541V23.8568V23.8594V23.8619V23.8644V23.8668V23.8692V23.8714V23.8736V23.8758V23.8779V23.88V23.8819V23.8838V23.8858V23.8876V23.8892V23.8909V23.8925V23.8941V23.8956V23.897V23.8996V23.9019V23.9042V23.906V23.9076V23.9094V23.9111C25.4677 24.6745 24.8489 25.2939 24.0855 25.2939C23.322 25.2939 22.7032 24.675 22.7032 23.9116V23.91V23.9083V23.9068V23.9051V23.9031V23.9008V23.8984V23.8956V23.8941V23.8925V23.8909V23.8892V23.8876V23.8858V23.8838V23.8819V23.88V23.8779V23.8758V23.8736V23.8714V23.8692V23.8668V23.8644V23.8619V23.8594V23.8568V23.8541V23.8514V23.8486V23.8458V23.8429V23.8399V23.837V23.8339V23.8308V23.8276V23.8243V23.8209V23.8176V23.8142V23.8107V23.8073V23.8037V23.7999V23.7962V23.7925V23.7887V23.7849V23.7809V23.7769V23.7728V23.7687V23.7646V23.7604V23.7561V23.7518V23.7474V23.743V23.7386V23.734V23.7294V23.7247V23.72V23.7153V23.7105V23.7057V23.7007V23.6957V23.6907V23.6856V23.6805V23.6754V23.6701V23.6649V23.6596V23.6542V23.6487V23.6433V23.6378V23.6321V23.6266V23.6209V23.6151V23.6093V23.6035V23.5977V23.5918V23.5858V23.5797V23.5737V23.5676V23.5614V23.5551V23.5489V23.5426V23.5362V23.5298V23.5233V23.5169V23.5104V23.5037V23.4971V23.4904V23.4837V23.4769V23.4701V23.4632V23.4563V23.4494V23.4423V23.4353V23.4282V23.4211V23.4139V23.4067V23.3994V23.392V23.3847V23.3772V23.3699V23.3623V23.3549V23.3472V23.3396V23.332V23.3243V23.3166V23.3088V23.3009V23.2931V23.2852V23.2773V23.2693V23.2613V23.2533V23.2451V23.2369V23.2288V23.2205V23.2123V23.204V23.1956V23.1873V23.1789V23.1705V23.1619V23.1533V23.1447V23.1362V23.1276V23.1189V23.1102V23.1013V23.0926V23.0838V23.0749V23.066V23.0571V23.0481V23.0391V23.03V23.021V23.0119V23.0028V22.9935V22.9843V22.975V22.9657V22.9565V22.9471V22.9377V22.9283V22.9189V22.9093V22.8998V22.8903V22.8807V22.8711V22.8614V22.8517V22.842V22.8324V22.8225V22.8127V22.8029V22.7931V22.7831V22.7732V22.7632V22.7533V22.7432V22.7332V22.7232V22.7131V22.7028V22.6927V22.6825V22.6723V22.6621V22.6518V22.6415V22.6311V22.6207V22.6104V22.6V22.5895V22.5791V22.5686V22.5581V22.5475V22.537V22.5263V22.5157V22.505V22.4944V22.4836V22.473V22.4622V22.4514V22.4406V22.4298V22.4189V22.408V22.3972V22.3863V22.3752V22.3643V22.3534V22.3423V22.3313V22.3202V22.3092V22.2981V22.2869V22.2759V22.2647V22.2535V22.2423V22.2311V22.2197V22.2085V22.1972V22.1859V22.1745V22.1632V22.1519V22.1404V22.1291V22.1176V22.1061V22.0946V22.0832V22.0717V22.0602V22.0486V22.0371V22.0255V22.0139V22.0023V21.9907V21.9791V21.9673V21.9557V21.944V21.9324V21.9206V21.9089V21.8971V21.8854V21.8735V21.8617V21.85V21.8381V21.8262V21.8143V21.8026V21.7907V21.7788V21.7668V21.7549V21.743V21.731V21.7191V21.7071V21.695V21.683V21.671V21.659V21.6469V21.6349V21.6229V21.6109V21.5987V21.5867V21.5745V21.5625V21.5503V21.5381V21.526V21.5138V21.5017V21.4895V21.4773V21.4652V21.453V21.4407V21.4285V21.4162V21.4041V21.3918V21.3796V21.3673V21.355V21.3428V21.3305V21.3182V21.3059V21.2936V21.2813V21.269V21.2567V21.2444V21.2321V21.2198V21.2074V21.1951V21.1828V21.1705V21.158V21.1457V21.1333V21.121V21.1087V21.0962V21.0839V21.0715V21.0591V21.0468V21.0343V21.022V21.0096V20.9973V20.9848V20.9724V20.9601V20.9476V20.9352V20.9229V20.9105V20.898V20.8856V20.8733V20.8608V20.8484V20.8361V20.8237V20.8112V20.7989V20.7865V20.7742V20.7617V20.7493V20.737V20.7245V20.7122V20.6998V20.6874V20.6751V20.6628V20.6503V20.638V20.6256V20.6133V20.601V20.5885V20.5762V20.5639V20.5516V20.5392V20.5269V20.5146V20.5023V20.49V20.4777V20.4654V20.4531V20.4409V20.4286V20.4163V20.404V20.3918V20.3795V20.3674V20.3551V20.3429V20.3306V20.3184V20.3063V20.2941V20.2819V20.2698V20.2576V20.2455V20.2333V20.2211V20.2091V20.1969V20.1849V20.1728V20.1607V20.1486V20.1365V20.1245V20.1125V20.1005V20.0884V20.0764V20.0645V20.0525V20.0406V20.0286V20.0167V20.0048V19.9929V19.9809V19.9691V19.9573V19.9454V19.9335V19.9217V19.9098V19.8981V19.8863V19.8746V19.8628V19.8511V19.8393V19.8277V19.816V19.8044V19.7926V19.781V19.7694V19.7578V19.7463V19.7347V19.7231V19.7116V19.7002V19.6885V19.6771V19.6657V19.6543V19.6428V19.6315V19.6201V19.6087V19.5973V19.586V19.5748V19.5635V19.5523V19.5409V19.5297V19.5185V19.5073V19.4963V19.4851V19.474V19.4628V19.4518V19.4407V19.4298V19.4187V19.4078V19.3969V19.3858V19.375V19.3641V19.3532V19.3424V19.3316V19.3209V19.3101V19.2993V19.2887V19.2779V19.2672V19.2566V19.2459V19.2354V19.2248V19.2143V19.2038V19.1933V19.1829V19.1724C22.7032 18.1106 21.7917 17.0003 20.6298 17.0003C19.9054 17.0003 19.1057 17.3941 18.5564 18.3316V18.3353V18.3496V18.3638V18.378V18.3924V18.4066V18.421V18.4354V18.4499V18.4643V18.4787V18.4932V18.5077V18.5222V18.5367V18.5512V18.5659V18.5805V18.595V18.6097V18.6243V18.639V18.6538V18.6684V18.6832V18.698V18.7127V18.7276V18.7424V18.7572V18.772V18.7869V18.8018V18.8166V18.8315V18.8465V18.8614V18.8765V18.8914V18.9065V18.9214V18.9365V18.9515V18.9666V18.9817V18.9967V19.0118V19.027V19.0421V19.0573V19.0723V19.0875V19.1027V19.1179V19.1332V19.1484V19.1636V19.1789V19.1941V19.2093V19.2247V19.24V19.2552V19.2705V19.2859V19.3012V19.3166V19.3319V19.3473V19.3626V19.3781V19.3934V19.4088V19.4243V19.4396V19.4551V19.4706V19.4859V19.5014V19.5169V19.5324V19.5477V19.5632V19.5787V19.5941V19.6098V19.6252V19.6407V19.6562V19.6717V19.6872V19.7028V19.7183V19.7337V19.7494V19.7648V19.7805V19.7959V19.8116V19.827V19.8425V19.8581V19.8738V19.8892V19.9049V19.9204V19.936V19.9515V19.9671V19.9827V19.9982V20.0138V20.0293V20.0449V20.0605V20.076V20.0916V20.1071V20.1227V20.1382V20.1538V20.1693V20.1849V20.2004V20.216V20.2315V20.2471V20.2626V20.2782V20.2937V20.3092V20.3247V20.3403V20.3558V20.3712V20.3867V20.4022V20.4177V20.4332V20.4487V20.4641V20.4796V20.4951V20.5106V20.5259V20.5414V20.5569V20.5722V20.5877V20.603V20.6185V20.6339V20.6492V20.6646V20.6799V20.6954V20.7107V20.7259V20.7413V20.7566V20.772V20.7872V20.8025V20.8177V20.8331V20.8483V20.8635V20.8787V20.8939V20.9091V20.9243V20.9395V20.9546V20.9698V20.9848V21V21.0151V21.0302V21.0452V21.0603V21.0754V21.0903V21.1054V21.1203V21.1354V21.1503V21.1652V21.1801V21.1951V21.21V21.2248V21.2397V21.2545V21.2693V21.2841V21.2989V21.3137V21.3285V21.3432V21.3579V21.3726V21.3872V21.4019V21.4165V21.4312V21.4458V21.4603V21.4748V21.4894V21.5039V21.5184V21.5329V21.5473V21.5616V21.5762V21.5905V21.6048V21.6191V21.6335V21.6478V21.662V21.6762V21.6905V21.7046V21.7188V21.7329V21.747V21.7611V21.7752V21.7892V21.8033V21.8172V21.8312V21.845V21.859V21.8728V21.8866V21.9004V21.9143V21.9281V21.9418V21.9555V21.9691V21.9828V21.9964V22.01V22.0236V22.0371V22.0506V22.0641V22.0775V22.0909V22.1043V22.1176V22.131V22.1443V22.1575V22.1707V22.1839V22.1971V22.2102V22.2233V22.2363V22.2493V22.2623V22.2753V22.2883V22.3012V22.314V22.3267V22.3396V22.3523V22.365V22.3777V22.3903V22.403V22.4156V22.428V22.4406V22.4531V22.4655V22.4778V22.4902V22.5026V22.5149V22.527V22.5392V22.5513V22.5635V22.5755V22.5876V22.5996V22.6116V22.6235V22.6354V22.6473V22.659V22.6708V22.6825V22.6943V22.7059V22.7175V22.729V22.7404V22.7519V22.7634V22.7749V22.7862V22.7974V22.8087V22.8199V22.8311V22.8422V22.8532V22.8643V22.8753V22.8863V22.8972V22.908V22.9187V22.9295V22.9403V22.951V22.9616V22.9721V22.9827V22.9933V23.0036V23.014V23.0244V23.0347V23.0449V23.055V23.0653V23.0754V23.0854V23.0954V23.1054V23.1153V23.1251V23.1349V23.1446V23.1544V23.164V23.1736V23.1832V23.1927V23.2021V23.2115V23.2208V23.2302V23.2394V23.2486V23.2577V23.2668V23.2758V23.2848V23.2936V23.3025V23.3113V23.3202V23.3287V23.3374V23.346V23.3546V23.363V23.3714V23.3799V23.3882V23.3963V23.4046V23.4128V23.4208V23.4288V23.4368V23.4447V23.4526V23.4603V23.4681V23.4758V23.4834V23.4909V23.4985V23.5058V23.5133V23.5206V23.5278V23.535V23.5421V23.5492V23.5562V23.5632V23.5701V23.5768V23.5836V23.5904V23.597V23.6037V23.6102V23.6165V23.623V23.6292V23.6356V23.6418V23.6479V23.654V23.6599V23.6659V23.6718V23.6776V23.6833V23.6891V23.6946V23.7001V23.7057V23.7111V23.7165V23.7217V23.727V23.7321V23.7372V23.7422V23.7471V23.752V23.7568V23.7615V23.7662V23.7708V23.7753V23.7798V23.7842V23.7885V23.7927V23.7969V23.801V23.8051V23.8091V23.8129V23.8167V23.8205V23.8241V23.8277V23.8313V23.8348V23.8381V23.8414V23.8447V23.8479V23.8509V23.854V23.8569V23.8598V23.8626V23.8653V23.8679V23.8706V23.8731V23.8754V23.8778V23.88V23.8822V23.8844V23.8863V23.8883V23.8902V23.892V23.8938V23.8955V23.897V23.8985V23.8999V23.9025V23.9047V23.9067V23.9083V23.9101V23.9115C18.5564 24.6749 17.9376 25.2939 17.1742 25.2939C16.4107 25.2939 15.7919 24.675 15.7919 23.9116V23.9101V23.9083V23.9067V23.9047V23.9025V23.8999V23.8985V23.897V23.8955V23.8938V23.892V23.8902V23.8883V23.8863V23.8844V23.8822V23.88V23.8778V23.8754V23.8731V23.8706V23.8679V23.8653V23.8626V23.8598V23.8569V23.854V23.8509V23.8479V23.8447V23.8414V23.8381V23.8348V23.8313V23.8277V23.8241V23.8205V23.8167V23.8129V23.8091V23.8051V23.801V23.7969V23.7927V23.7885V23.7842V23.7798V23.7753V23.7708V23.7662V23.7615V23.7568V23.752V23.7471V23.7422V23.7372V23.7321V23.727V23.7217V23.7165V23.7111V23.7057V23.7001V23.6946V23.6891V23.6833V23.6776V23.6718V23.6659V23.6599V23.654V23.6479V23.6418V23.6356V23.6292V23.623V23.6165V23.6102V23.6037V23.597V23.5904V23.5836V23.5768V23.5701V23.5632V23.5562V23.5492V23.5421V23.535V23.5278V23.5206V23.5133V23.5058V23.4985V23.4909V23.4834V23.4758V23.4681V23.4603V23.4526V23.4447V23.4368V23.4288V23.4208V23.4128V23.4046V23.3963V23.3882V23.3799V23.3714V23.363V23.3546V23.346V23.3374V23.3287V23.3202V23.3113V23.3025V23.2936V23.2848V23.2758V23.2668V23.2577V23.2486V23.2394V23.2302V23.2208V23.2115V23.2021V23.1927V23.1832V23.1736V23.164V23.1544V23.1446V23.1349V23.1251V23.1153V23.1054V23.0954V23.0854V23.0754V23.0653V23.055V23.0449V23.0347V23.0244V23.014V23.0036V22.9933V22.9827V22.9721V22.9616V22.951V22.9403V22.9295V22.9187V22.908V22.8972V22.8863V22.8753V22.8643V22.8532V22.8422V22.8311V22.8199V22.8087V22.7974V22.7862V22.7749V22.7634V22.7519V22.7404V22.729V22.7175V22.7059V22.6943V22.6825V22.6708V22.659V22.6473V22.6354V22.6235V22.6116V22.5996V22.5876V22.5755V22.5635V22.5513V22.5392V22.527V22.5149V22.5026V22.4902V22.4778V22.4655V22.4531V22.4406V22.428V22.4156V22.403V22.3903V22.3777V22.365V22.3523V22.3396V22.3267V22.314V22.3012V22.2883V22.2753V22.2623V22.2493V22.2363V22.2233V22.2102V22.1971V22.1839V22.1707V22.1575V22.1443V22.131V22.1176V22.1043V22.0909V22.0775V22.0641V22.0506V22.0371V22.0236V22.01V21.9964V21.9828V21.9691V21.9555V21.9418V21.9281V21.9143V21.9004V21.8866V21.8728V21.859V21.845V21.8312V21.8172V21.8033V21.7892V21.7752V21.7611V21.747V21.7329V21.7188V21.7046V21.6905V21.6762V21.662V21.6478V21.6335V21.6191V21.6048V21.5905V21.5762V21.5616V21.5473V21.5329V21.5184V21.5039V21.4894V21.4748V21.4603V21.4458V21.4312V21.4165V21.4019V21.3872V21.3726V21.3579V21.3432V21.3285V21.3137V21.2989V21.2841V21.2693V21.2545V21.2397V21.2248V21.21V21.1951V21.1801V21.1652V21.1503V21.1354V21.1203V21.1054V21.0903V21.0754V21.0603V21.0452V21.0302V21.0151V21V20.9848V20.9698V20.9546V20.9395V20.9243V20.9091V20.8939V20.8787V20.8635V20.8483V20.8331V20.8177V20.8025V20.7872V20.772V20.7566V20.7413V20.7259V20.7107V20.6954V20.6799V20.6646V20.6492V20.6339V20.6185V20.603V20.5877V20.5722V20.5569V20.5414V20.5259V20.5106V20.4951V20.4796V20.4641V20.4487V20.4332V20.4177V20.4022V20.3867V20.3712V20.3558V20.3403V20.3247V20.3092V20.2937V20.2782V20.2626V20.2471V20.2315V20.216V20.2004V20.1849V20.1693V20.1538V20.1382V20.1227V20.1071V20.0916V20.076V20.0605V20.0449V20.0293V20.0138V19.9982V19.9827V19.9671V19.9515V19.936V19.9204V19.9049V19.8892V19.8738V19.8581V19.8425V19.827V19.8116V19.7959V19.7805V19.7648V19.7494V19.7337V19.7183V19.7028V19.6872V19.6717V19.6562V19.6407V19.6252V19.6098V19.5941V19.5787V19.5632V19.5477V19.5324V19.5169V19.5014V19.4859V19.4706V19.4551V19.4396V19.4243V19.4088V19.3934V19.3781V19.3626V19.3473V19.3319V19.3166V19.3012V19.2859V19.2705V19.2552V19.24V19.2247V19.2093V19.1941V19.1789V19.1636V19.1484V19.1332V19.1179V19.1027V19.0875V19.0723V19.0573V19.0421V19.027V19.0118V18.9967V18.9817V18.9666V18.9515V18.9365V18.9214V18.9065V18.8914V18.8765V18.8614V18.8465V18.8315V18.8166V18.8018V18.7869V18.772V18.7572V18.7424V18.7276V18.7127V18.698V18.6832V18.6684V18.6538V18.639V18.6243V18.6097V18.595V18.5805V18.5659V18.5512V18.5367V18.5222V18.5077V18.4932V18.4787V18.4643V18.4499V18.4354V18.421V18.4066V18.3924V18.378V18.3638V18.3496V18.3353V18.3211V18.3068V18.2926V18.2785V18.2644V18.2503V18.2362V18.2222V18.2081V18.1942V18.1802V18.1663V18.1524V18.1385V18.1247V18.1108V18.097V18.0832V18.0695V18.0558V18.0421V18.0285V18.0148V18.0012V17.9877V17.9823V17.9768V17.9714V17.9658V17.9604V17.9549V17.9494V17.9439V17.9383V17.9328V17.9273V17.9217V17.9162V17.9107V17.905V17.8995V17.8938V17.8882V17.8826V17.877V17.8713V17.8656V17.86V17.8543V17.8486V17.843V17.8373V17.8315V17.8258V17.82V17.8143V17.8085V17.8027V17.7971V17.7913V17.7855V17.7796V17.7738V17.768V17.7622V17.7564V17.7505V17.7447V17.7389V17.7329V17.7271V17.7212V17.7154V17.7094V17.7035V17.6977V17.6917V17.6858V17.6798V17.6739V17.668V17.662V17.6561V17.6501V17.644V17.6381V17.6322V17.6262V17.6201V17.6142V17.6081V17.6022V17.5961V17.59V17.5841V17.578V17.5719V17.5659V17.5599V17.5538V17.5477V17.5416V17.5355V17.5295V17.5234V17.5173V17.5112V17.5051V17.4989V17.4928V17.4867V17.4807V17.4744V17.4684V17.4623V17.4561V17.45V17.4438V17.4377V17.4315V17.4254V17.4192V17.4131V17.4068V17.4006V17.3945V17.3883V17.3821V17.376V17.3698V17.3636V17.3574V17.3513V17.3451V17.3388V17.3326V17.3264V17.3202V17.3141V17.3079V17.3017V17.2954V17.2892V17.283V17.2768V17.2706V17.2643V17.2581V17.2519V17.2457V17.2395V17.2332V17.227V17.2208V17.2146V17.2084V17.2021V17.1959V17.1897V17.1835V17.1773V17.171V17.1648V17.1586V17.1524V17.1462V17.1398V17.1336V17.1274V17.1211V17.1149V17.1087V17.1025V17.0963V17.09V17.0838V17.0777V17.0715V17.0653V17.0591V17.0529V17.0466V17.0404V17.0342V17.028V17.0218V17.0157V17.0095V17.0032V16.997V16.9909V16.9847V16.9785V16.9723V16.9662V16.96V16.9537V16.9477V16.9414V16.9354V16.9291V16.9231V16.9168V16.9108V16.9045V16.8985V16.8924V16.8862V16.8801V16.874V16.8678V16.8617V16.8556V16.8495V16.8434V16.8374V16.8313V16.8252V16.8191V16.813V16.8069V16.8009V16.7948V16.7888V16.7828V16.7767V16.7706V16.7647V16.7586V16.7526V16.7465V16.7406V16.7345V16.7286V16.7226V16.7167V16.7106V16.7047V16.6987V16.6928V16.6868V16.6809V16.6749V16.669V16.6632V16.6573V16.6513V16.6455V16.6396V16.6336V16.6278V16.622V16.6161V16.6103V16.6044V16.5986V16.5928V16.5869V16.5811V16.5754V16.5696V16.5638V16.558V16.5523V16.5465V16.5407V16.5351V16.5294V16.5236V16.5179V16.5123V16.5066V16.5009V16.4952V16.4896V16.4839V16.4782V16.4727V16.4671V16.4614V16.4559V16.4503V16.4447V16.4391V16.4336V16.4281V16.4225V16.417V16.4115V16.406V16.4006V16.395V16.3896V16.3841V16.3787V16.3733V16.3678V16.3624V16.357V16.3518V16.3464V16.341V16.3356V16.3303V16.325V16.3197V16.3145V16.3092V16.3039V16.2987V16.2934V16.2882V16.2829V16.2778V16.2726V16.2675V16.2623V16.2571V16.252V16.2469V16.2417V16.2368V16.2317V16.2265V16.2216V16.2164V16.2115V16.2065V16.2015V16.1965V16.1916V16.1866V16.1818V16.1768V16.1719V16.167V16.1621V16.1573V16.1524V16.1476V16.1429V16.1381V16.1334V16.1285V16.1238V16.1191V16.1144V16.1097V16.105V16.1003V16.0958V16.0911V16.0865V16.082V16.0774V16.0728V16.0683V16.0637V16.0593V16.0547V16.0503V16.0459V16.0415V16.037V16.0326V16.0282V16.0239V16.0195V16.0152V16.0109V16.0066V16.0023V15.9981V15.9939V15.9896V15.9855V15.9813V15.9772V15.973V15.9689V15.9647V15.9607V15.9566V15.9526V15.9486V15.9446V15.9405V15.9367V15.9327V15.9288V15.9248V15.9209V15.9171V15.9133V15.9094V15.9057V15.9018V15.8981V15.8944V15.8906V15.8869V15.8833V15.8796V15.876V15.8724V15.8688V15.8652V15.8618V15.8582V15.8547V15.8513V15.8478V15.8443V15.8409V15.8376V15.8341V15.8308V15.8275V15.8242V15.8208V15.8177V15.8144V15.8112V15.808V15.8048V15.8018V15.7986V15.7956V15.7924V15.7893V15.7863V15.7834V15.7803V15.7774V15.7745V15.7716V15.7687V15.7658V15.7631V15.7602V15.7574V15.7546V15.752V15.7492V15.7466V15.7439V15.7412V15.7387V15.7361V15.7335V15.731V15.7285V15.726V15.7235V15.7212V15.7187V15.7163V15.714V15.7116V15.7094V15.7071V15.7049V15.7027V15.7005V15.6982V15.6962V15.6941V15.692V15.6899V15.6879V15.6858V15.6839V15.6819V15.68V15.6781V15.6763V15.6745V15.6725V15.6709V15.6691V15.6673V15.6656V15.664V15.6623V15.6606V15.6591V15.6576V15.6561V15.6546V15.653V15.6517V15.6501V15.6488V15.6461V15.6436V15.6412V15.6388V15.6366V15.6345V15.6326V15.6306V15.629V15.6273V15.6253V15.6239V15.6222V15.6208V15.6192C15.7919 14.8558 16.4107 14.2358 17.1742 14.2358Z" fill="#1F1F1F"/>
</svg>
