<svg width="34" height="34" viewBox="0 0 34 34" fill="none" xmlns="http://www.w3.org/2000/svg">
<path fill-rule="evenodd" clip-rule="evenodd" d="M11.9946 28.3697C22.5734 28.3697 28.3598 19.7401 28.3598 12.2574C28.3598 12.0117 28.3598 11.7679 28.3429 11.5251C29.4685 10.7246 30.4399 9.73077 31.2123 8.59361C30.1638 9.05179 29.0494 9.35227 27.9098 9.48474C29.1097 8.77677 30.0082 7.66451 30.4385 6.35207C29.3087 7.01174 28.0738 7.47731 26.7856 7.72711C24.6073 5.44724 20.9643 5.33678 18.6472 7.4814C17.1544 8.86421 16.5194 10.926 16.9833 12.8926C12.359 12.6635 8.05014 10.5134 5.12894 6.97628C3.60246 9.56388 4.38322 12.8729 6.91053 14.5345C5.99521 14.5083 5.0995 14.2657 4.29912 13.8268V13.8987C4.30052 16.594 6.2307 18.9147 8.9136 19.4488C8.06696 19.6765 7.17826 19.7095 6.3176 19.5453C7.07033 21.8528 9.23039 23.4332 11.6904 23.4788C9.65371 25.0548 7.13761 25.9106 4.54722 25.9078C4.09026 25.9064 3.6333 25.8802 3.17773 25.8264C5.80878 27.488 8.86875 28.3698 11.9946 28.3656" fill="#1F1F1F"/>
</svg>
