<svg width="50" height="42" viewBox="0 0 50 42" fill="none" xmlns="http://www.w3.org/2000/svg">
<g id="Wistlist">
<path id="Vector" d="M41.0726 30.2251H9.08505C8.2425 30.2251 7.43446 29.8706 6.83868 29.2396C6.24291 28.6086 5.90821 27.7528 5.90821 26.8604C5.90733 26.2176 6.07834 25.5877 6.40146 25.0436C6.72457 24.4994 7.18657 24.0633 7.73398 23.7858L25.0788 15.4707L42.3872 23.7858C42.9346 24.0633 43.3966 24.4994 43.7197 25.0436C44.0428 25.5877 44.2138 26.2176 44.2129 26.8604C44.213 27.7461 43.8833 28.5961 43.2954 29.226C42.7075 29.8559 41.9088 30.2149 41.0726 30.2251Z" stroke="white" stroke-width="1.45923" stroke-miterlimit="10"/>
<path id="Vector_2" d="M23.9302 15.4711V15.0891C23.959 14.5031 24.145 13.9313 24.4733 13.4206C24.8015 12.9098 25.2626 12.4746 25.8187 12.1506C26.2712 11.8741 26.6345 11.4994 26.8733 11.0628C27.1121 10.6263 27.2184 10.1429 27.1817 9.65956C27.1451 9.17624 26.9667 8.70949 26.664 8.30473C26.3614 7.89997 25.9447 7.57098 25.4545 7.34976C24.9643 7.12855 24.4174 7.02265 23.8668 7.04236C23.3163 7.06208 22.781 7.20674 22.3129 7.46226C21.8448 7.71779 21.4599 8.07549 21.1957 8.50055C20.9315 8.92561 20.7969 9.40357 20.805 9.88791" stroke="white" stroke-width="1.45923" stroke-miterlimit="10"/>
</g>
</svg>
