<svg width="30" height="30" viewBox="0 0 30 30" fill="none" xmlns="http://www.w3.org/2000/svg">
<g id="email logo">
<g id="Group">
<path id="Vector" d="M29.9265 6.46619C29.8018 5.83607 29.5207 5.24053 29.1105 4.73984C29.0272 4.63473 28.9401 4.54121 28.8448 4.44635C28.1151 3.71275 27.1 3.29199 26.0598 3.29199H3.94008C2.88826 3.29199 1.89902 3.70215 1.15459 4.44676C1.06037 4.54074 0.973008 4.6352 0.886523 4.74365C0.478125 5.24223 0.198223 5.83695 0.0765234 6.46795C0.0256641 6.71574 0 6.9725 0 7.23225V22.7676C0 23.3081 0.109805 23.8344 0.32748 24.3347C0.515859 24.779 0.80168 25.2003 1.15436 25.5528C1.24318 25.6412 1.33143 25.7227 1.42564 25.8022C2.13076 26.3862 3.02361 26.7075 3.94008 26.7075H26.0598C26.9822 26.7075 27.8742 26.385 28.5774 25.7958C28.6714 25.7197 28.7585 25.6399 28.8456 25.5528C29.1865 25.2122 29.4575 24.8209 29.6522 24.3894L29.6779 24.3279C29.8915 23.8371 30 23.3125 30 22.7677V7.23225C30 6.9759 29.9753 6.71744 29.9265 6.46619ZM2.04041 5.8066C2.09613 5.72504 2.16727 5.64131 2.25803 5.54984C2.70855 5.09955 3.30604 4.85176 3.94002 4.85176H26.0597C26.6993 4.85176 27.297 5.09996 27.7425 5.55072C27.8194 5.62848 27.8929 5.71479 27.957 5.80104L28.1262 6.02838L16.3195 16.3184C15.9555 16.6375 15.4869 16.8131 14.9998 16.8131C14.5175 16.8131 14.0493 16.6379 13.681 16.3188L1.88613 6.03131L2.04041 5.8066ZM1.56768 22.9048C1.56129 22.8625 1.55982 22.8155 1.55982 22.7676V7.55393L10.7221 15.5468L1.65229 23.4546L1.56768 22.9048ZM27.2402 24.8341C26.8856 25.0387 26.4772 25.1472 26.0598 25.1472H3.94008C3.52248 25.1472 3.11426 25.0387 2.75988 24.8341L2.3891 24.6192L11.7604 16.4524L12.7874 17.3458C13.4034 17.8806 14.1891 18.1754 14.9999 18.1754C15.8138 18.1754 16.6007 17.8806 17.2164 17.3458L18.243 16.452L27.611 24.6196L27.2402 24.8341ZM28.4398 22.7676C28.4398 22.8147 28.4389 22.8612 28.433 22.9026L28.3518 23.4576L19.278 15.551L28.4398 7.55779V22.7676Z" fill="#8A8A8A"/>
</g>
</g>
</svg>
