<svg width="34" height="34" viewBox="0 0 34 34" fill="none" xmlns="http://www.w3.org/2000/svg">
<path fill-rule="evenodd" clip-rule="evenodd" d="M3.00293 8.70677C3.00293 5.65317 5.47836 3.17773 8.53197 3.17773H25.1191C28.1726 3.17773 30.6481 5.65317 30.6481 8.70677V25.2939C30.6481 28.3474 28.1726 30.8229 25.1191 30.8229H8.53197C5.47836 30.8229 3.00293 28.3474 3.00293 25.2939V8.70677ZM8.53197 5.94225C7.00517 5.94225 5.76745 7.17997 5.76745 8.70677V25.2939C5.76745 26.8207 7.00517 28.0584 8.53197 28.0584H16.8255V18.3826H15.4433C14.6798 18.3826 14.061 17.7638 14.061 17.0003C14.061 16.2369 14.6798 15.6181 15.4433 15.6181H16.8255V13.5447C16.8255 10.8728 18.9915 8.70677 21.6634 8.70677H22.4928C23.2562 8.70677 23.875 9.32564 23.875 10.089C23.875 10.8524 23.2562 11.4713 22.4928 11.4713H21.6634C20.5184 11.4713 19.59 12.3996 19.59 13.5447V15.6181H22.4928C23.2562 15.6181 23.875 16.2369 23.875 17.0003C23.875 17.7638 23.2562 18.3826 22.4928 18.3826H19.59V28.0584H25.1191C26.6459 28.0584 27.8836 26.8207 27.8836 25.2939V8.70677C27.8836 7.17997 26.6459 5.94225 25.1191 5.94225H8.53197Z" fill="#1F1F1F"/>
</svg>
