<svg width="20" height="20" viewBox="0 0 20 20" fill="none" xmlns="http://www.w3.org/2000/svg">
<path d="M17 6.5V14.5C17 16.3856 17 17.3284 16.4142 17.9142C15.8284 18.5 14.8856 18.5 13 18.5H12H8H7C5.11438 18.5 4.17157 18.5 3.58579 17.9142C3 17.3284 3 16.3856 3 14.5V6.5" stroke="#C40460" stroke-width="2" stroke-linejoin="round"/>
<path d="M1 8.49987L5.5 4.49987L8.6713 1.68096C9.429 1.00739 10.571 1.00739 11.3287 1.68096L14.5 4.49987L19 8.49987" stroke="#C40460" stroke-width="2" stroke-linecap="round" stroke-linejoin="round"/>
<path d="M8 18.5V14.5C8 13.3954 8.8954 12.5 10 12.5C11.1046 12.5 12 13.3954 12 14.5V18.5" stroke="#C40460" stroke-width="2" stroke-linecap="round" stroke-linejoin="round"/>
<path opacity="0.1" d="M15.7218 5.58382L12.7218 2.79811C11.4309 1.59937 10.7854 1 10 1C9.2146 1 8.5691 1.59937 7.2782 2.79811L4.2782 5.58382C3.64836 6.16867 3.33345 6.46109 3.16672 6.84342C3 7.22575 3 7.6555 3 8.515V14.4999C3 16.3856 3 17.3284 3.58579 17.9142C4.17157 18.4999 5.11438 18.4999 7 18.4999H7.75V14.4999C7.75 13.2573 8.7574 12.2499 10 12.2499C11.2426 12.2499 12.25 13.2573 12.25 14.4999V18.4999H13C14.8856 18.4999 15.8284 18.4999 16.4142 17.9142C17 17.3284 17 16.3856 17 14.4999V8.515C17 7.6555 17 7.22575 16.8333 6.84342C16.6666 6.46109 16.3516 6.16866 15.7218 5.58382Z" fill="#C40460"/>
</svg>
