<svg width="34" height="34" viewBox="0 0 34 34" fill="none" xmlns="http://www.w3.org/2000/svg">
<path d="M16.6517 28.404C14.2065 28.404 12.4469 28.4027 11.075 28.2697C9.71879 28.1382 8.85125 27.8856 8.15891 27.4505C7.36761 26.9534 6.6985 26.2843 6.20129 25.4931C5.76639 24.8008 5.51361 23.9332 5.3823 22.577C5.24926 21.2051 5.24805 19.4455 5.24805 17.0003C5.24805 14.5551 5.24926 12.7955 5.3823 11.4236C5.51361 10.0674 5.76639 9.19988 6.20129 8.50754C6.69848 7.71623 7.36759 7.04711 8.15891 6.54992C8.85125 6.11503 9.71879 5.86225 11.075 5.73093C12.4467 5.59789 14.2063 5.59668 16.6517 5.59668C19.0969 5.59668 20.8565 5.59789 22.2284 5.73093C23.5846 5.86225 24.4521 6.11503 25.1445 6.54992C25.9357 7.04713 26.6048 7.71625 27.1019 8.50754C27.537 9.19988 27.7896 10.0674 27.9211 11.4236C28.0541 12.7955 28.0553 14.5551 28.0553 17.0003C28.0553 19.4455 28.0541 21.2051 27.9211 22.577C27.7896 23.9332 27.537 24.8008 27.1019 25.4931C26.6047 26.2843 25.9357 26.9534 25.1445 27.4505C24.4521 27.8856 23.5846 28.1382 22.2284 28.2697C20.8565 28.4027 19.0969 28.404 16.6517 28.404Z" stroke="#1F1F1F" stroke-width="3.01584"/>
<path d="M16.6512 22.1833C19.514 22.1833 21.8347 19.8626 21.8347 16.9999C21.8347 14.1371 19.514 11.8164 16.6512 11.8164C13.7885 11.8164 11.4678 14.1371 11.4678 16.9999C11.4678 19.8626 13.7885 22.1833 16.6512 22.1833Z" stroke="#1F1F1F" stroke-width="3.01584"/>
<path d="M23.39 11.8171C24.2488 11.8171 24.945 11.1209 24.945 10.2621C24.945 9.40325 24.2488 8.70703 23.39 8.70703C22.5312 8.70703 21.835 9.40325 21.835 10.2621C21.835 11.1209 22.5312 11.8171 23.39 11.8171Z" fill="#1F1F1F"/>
</svg>
