<svg width="25" height="25" viewBox="0 0 25 25" fill="none" xmlns="http://www.w3.org/2000/svg">
<path d="M9.6 2.4C5.6292 2.4 2.4 5.6292 2.4 9.6C2.4 13.5708 5.6292 16.8 9.6 16.8C13.5708 16.8 16.8 13.5708 16.8 9.6C16.8 5.6292 13.5708 2.4 9.6 2.4ZM17.1744 15.4764L23.6484 21.9516C23.763 22.0623 23.8544 22.1947 23.9173 22.3411C23.9802 22.4875 24.0133 22.645 24.0147 22.8043C24.0161 22.9637 23.9857 23.1217 23.9254 23.2691C23.8651 23.4166 23.7759 23.5506 23.6633 23.6633C23.5506 23.7759 23.4166 23.8651 23.2691 23.9254C23.1217 23.9857 22.9637 24.0161 22.8043 24.0147C22.645 24.0133 22.4875 23.9802 22.3411 23.9173C22.1947 23.8544 22.0623 23.763 21.9516 23.6484L15.4764 17.1744C13.7985 18.4864 11.7299 19.1994 9.6 19.2C4.3068 19.2 0 14.8932 0 9.6C0 4.3068 4.3068 0 9.6 0C14.8932 0 19.2 4.3068 19.2 9.6C19.2001 11.7301 18.487 13.7988 17.1744 15.4764ZM10.8 6C10.8 5.68174 10.6736 5.37652 10.4485 5.15147C10.2235 4.92643 9.91826 4.8 9.6 4.8C9.28174 4.8 8.97652 4.92643 8.75147 5.15147C8.52643 5.37652 8.4 5.68174 8.4 6V9.6C8.40007 9.91823 8.52654 10.2234 8.7516 10.4484L11.1516 12.8484C11.3779 13.067 11.681 13.1879 11.9957 13.1852C12.3103 13.1825 12.6113 13.0563 12.8338 12.8338C13.0563 12.6113 13.1825 12.3103 13.1852 11.9957C13.1879 11.681 13.067 11.3779 12.8484 11.1516L10.8 9.1032V6Z" fill="#1F1F1F"/>
</svg>
