<svg width="34" height="34" viewBox="0 0 34 34" fill="none" xmlns="http://www.w3.org/2000/svg">
<g clip-path="url(#clip0_1371_1261)">
<path d="M32.611 25.8937C32.0045 27.257 30.4401 28.4917 28.9712 28.7643C28.8208 28.7923 25.2308 29.4402 17.3591 29.4402H17.3384C9.46782 29.4402 5.87464 28.7923 5.72535 28.7653C4.25636 28.4917 2.69095 27.257 2.08344 25.8927C2.02954 25.7714 0.762695 22.8541 0.762695 16.9999C0.762695 11.1457 2.02954 8.2274 2.08344 8.1061C2.69095 6.74181 4.25636 5.50815 5.72535 5.2355C5.87464 5.2075 9.46782 4.55957 17.3384 4.55957C25.2308 4.55957 28.8208 5.2075 28.9701 5.23446C30.4401 5.50815 32.0045 6.74181 32.612 8.10507C32.6659 8.2274 33.9359 11.1457 33.9359 16.9999C33.9359 22.8541 32.6659 25.7714 32.611 25.8937ZM30.7149 8.94479C30.3914 8.21807 29.3775 7.41981 28.5917 7.27364C28.5585 7.26742 25.0058 6.63296 17.3591 6.63296C9.69278 6.63296 6.13692 7.26742 6.10271 7.27364C5.31689 7.41981 4.30404 8.21807 3.97956 8.94893C3.96919 8.97071 2.83712 11.6392 2.83712 16.9999C2.83712 22.3596 3.96919 25.0281 3.98163 25.055C4.30404 25.7817 5.31689 26.58 6.10374 26.7262C6.13692 26.7324 9.69278 27.3668 17.3384 27.3668H17.3591C25.0058 27.3668 28.5585 26.7324 28.5928 26.7262C29.3786 26.58 30.3914 25.7817 30.7159 25.0509C30.7263 25.0281 31.8604 22.3596 31.8604 16.9999C31.8604 11.6402 30.7263 8.97071 30.7149 8.94479ZM14.7995 23.0604C14.6316 23.1672 14.4388 23.2201 14.247 23.2201C14.0749 23.2201 13.9028 23.1776 13.7463 23.0905C13.4155 22.908 13.2103 22.5607 13.2103 22.1834V11.8164C13.2103 11.4401 13.4135 11.0939 13.7421 10.9114C14.0707 10.7279 14.474 10.7362 14.7923 10.9342L23.1055 16.0721C23.4093 16.2597 23.5959 16.5914 23.5969 16.9491C23.598 17.3068 23.4155 17.6406 23.1128 17.8303L14.7995 23.0604ZM15.2847 13.6763V20.3059L20.6009 16.9615L15.2847 13.6763Z" fill="#1F1F1F"/>
</g>
<defs>
<clipPath id="clip0_1371_1261">
<rect width="33.1742" height="33.1742" fill="white" transform="translate(0.761719 0.413086)"/>
</clipPath>
</defs>
</svg>
